<?xml version="1.0" encoding="UTF-8" standalone="no" ?>
<!DOCTYPE svg PUBLIC "-//W3C//DTD SVG 1.1//EN" "http://www.w3.org/Graphics/SVG/1.1/DTD/svg11.dtd">
<svg xmlns="http://www.w3.org/2000/svg" xmlns:xlink="http://www.w3.org/1999/xlink" version="1.1" width="1280pt" height="1280pt" viewBox="0 0 1279.99996 1279.99996" xml:space="preserve">
<desc>Created with Fabric.js 5.3.0</desc>
<defs>
</defs>
<g transform="matrix(0.0998857064 0 0 -0.0998836483 640.6910665324 640.7042396166)" id="Vh2GQSilJIKbjciwG3-sr"  >
<path style="stroke: none; stroke-width: 1; stroke-dasharray: none; stroke-linecap: butt; stroke-dashoffset: 0; stroke-linejoin: miter; stroke-miterlimit: 4; fill: rgb(153,255,153); fill-rule: nonzero; opacity: 1;"  transform=" translate(-6399.9356244997, -6400.0674978659)" d="M 6209 12795 C 6206 12793 6128 12786 6035 12780 C 5116 12722 4315 12506 3510 12099 C 2914 11798 2412 11437 1926 10960 C 1523 10564 1200 10155 904 9665 C 799 9490 579 9052 498 8855 C 242 8232 89 7607 35 6960 C 27 6858 15 6721 10 6655 C -3 6505 -3 6277 9 6157 C 15 6106 24 5993 30 5905 C 126 4557 679 3236 1584 2200 C 2685 939 4244 155 5900 30 C 5980 24 6098 15 6162 10 C 6311 -3 6526 -3 6643 9 C 6694 15 6807 24 6895 30 C 7037 40 7218 60 7320 75 C 7576 115 7774 156 8008 215 C 9409 575 10664 1423 11537 2600 C 12165 3448 12575 4442 12725 5482 C 12738 5577 12756 5741 12765 5845 C 12773 5950 12785 6085 12790 6146 C 12803 6286 12803 6521 12790 6647 C 12785 6701 12776 6813 12770 6895 C 12705 7799 12421 8738 11972 9530 C 11664 10074 11316 10527 10869 10965 C 10380 11444 9866 11812 9257 12116 C 8514 12489 7710 12712 6900 12770 C 6815 12776 6701 12785 6647 12790 C 6549 12800 6217 12804 6209 12795 z M 6926 11983 C 7551 11321 8036 10663 8416 9963 C 8557 9703 8760 9274 8760 9237 C 8760 9226 8736 9214 8678 9196 C 8072 9014 7489 8910 6860 8871 C 6773 8866 6721 8866 6713 8873 C 6703 8880 6700 9222 6700 10520 C 6700 11420 6703 12160 6707 12163 C 6727 12184 6764 12154 6926 11983 z M 6094 12124 C 6097 12115 6100 11383 6100 10495 C 6100 9217 6097 8880 6088 8873 C 6057 8849 5476 8904 5109 8965 C 4746 9026 4125 9177 4105 9210 C 4102 9215 4134 9297 4176 9392 C 4529 10189 5010 10938 5632 11660 C 5781 11832 6067 12140 6079 12140 C 6084 12140 6091 12133 6094 12124 z M 5140 12029 C 5140 12023 5107 11979 5067 11932 C 4444 11195 3902 10319 3560 9498 C 3543 9455 3524 9418 3519 9415 C 3493 9398 2829 9712 2539 9878 C 2353 9985 2111 10135 2068 10171 L 2037 10196 L 2097 10266 C 2130 10304 2222 10400 2301 10480 C 3029 11213 3949 11742 4945 12000 C 5103 12041 5140 12047 5140 12029 z M 7896 11989 C 8764 11752 9533 11342 10205 10756 C 10356 10625 10582 10403 10689 10281 L 10763 10196 L 10732 10171 C 10689 10135 10448 9985 10261 9878 C 9991 9723 9381 9431 9349 9442 C 9343 9444 9301 9529 9256 9630 C 8906 10415 8383 11238 7813 11902 C 7738 11989 7714 12030 7738 12030 C 7743 12030 7814 12012 7896 11989 z M 1859 9581 C 2286 9309 2726 9079 3165 8898 C 3231 8870 3291 8843 3297 8836 C 3307 8827 3300 8792 3264 8675 C 3085 8079 2978 7483 2940 6871 C 2934 6764 2927 6714 2918 6709 C 2911 6704 2396 6700 1773 6700 C 784 6700 640 6702 633 6715 C 616 6745 652 7099 700 7385 C 792 7923 963 8452 1205 8945 C 1359 9257 1626 9700 1662 9700 C 1668 9700 1756 9647 1859 9581 z M 11227 9587 C 11669 8922 11972 8152 12104 7360 C 12149 7092 12183 6743 12167 6715 C 12160 6702 12021 6700 11066 6700 C 10203 6700 9970 6703 9963 6713 C 9957 6719 9948 6807 9941 6907 C 9903 7504 9789 8110 9604 8709 C 9567 8826 9561 8855 9572 8865 C 9579 8871 9657 8907 9745 8945 C 10162 9123 10600 9359 11002 9620 C 11070 9664 11132 9699 11140 9698 C 11148 9696 11187 9646 11227 9587 z M 8989 8632 C 9026 8564 9158 8065 9215 7785 C 9291 7402 9364 6757 9336 6711 C 9325 6695 6729 6695 6712 6712 C 6694 6730 6695 8233 6713 8247 C 6719 8253 6786 8260 6860 8264 C 7480 8294 8203 8420 8810 8604 C 8980 8656 8977 8655 8989 8632 z M 4052 8586 C 4661 8408 5337 8293 5940 8264 C 6014 8260 6081 8253 6088 8247 C 6105 8233 6106 6730 6088 6712 C 6073 6697 3574 6695 3551 6709 C 3538 6717 3538 6742 3549 6887 C 3586 7404 3672 7893 3811 8383 C 3868 8581 3884 8630 3895 8630 C 3897 8630 3968 8610 4052 8586 z M 2919 6091 C 2929 6085 2935 6043 2941 5944 C 2983 5255 3122 4546 3340 3905 C 3364 3834 3368 3813 3358 3804 C 3351 3797 3289 3769 3220 3742 C 2805 3576 2351 3343 1916 3072 L 1747 2966 L 1723 2996 C 1710 3012 1648 3102 1586 3195 C 1060 3983 743 4865 646 5810 C 628 5982 624 6073 634 6088 C 643 6103 2897 6105 2919 6091 z M 6088 6088 C 6097 6079 6100 5875 6100 5230 C 6100 4765 6096 4380 6092 4374 C 6088 4366 6018 4358 5905 4351 C 5275 4311 4733 4220 4127 4053 C 4013 4021 3956 4010 3949 4017 C 3936 4030 3872 4222 3820 4400 C 3676 4898 3587 5401 3549 5919 C 3539 6056 3540 6084 3551 6091 C 3574 6105 6074 6102 6088 6088 z M 9337 6089 C 9348 6078 9348 6069 9329 5825 C 9288 5281 9173 4710 8994 4158 C 8964 4066 8935 3988 8930 3985 C 8925 3982 8868 3996 8804 4015 C 8215 4194 7560 4309 6895 4351 C 6782 4358 6712 4366 6708 4374 C 6704 4380 6700 4765 6700 5231 C 6700 5875 6703 6079 6712 6088 C 6729 6105 9320 6106 9337 6089 z M 12163 5978 C 12162 5913 12154 5798 12145 5723 C 12037 4822 11727 3970 11235 3225 C 11099 3019 11060 2968 11043 2974 C 11034 2978 10968 3018 10896 3064 C 10510 3310 10035 3555 9578 3744 C 9540 3760 9510 3775 9510 3779 C 9510 3783 9526 3833 9545 3891 C 9765 4543 9913 5299 9946 5940 C 9949 6014 9957 6081 9963 6088 C 9970 6097 10199 6100 11069 6098 L 12165 6095 L 12163 5978 z M 6094 3734 C 6106 3704 6101 692 6089 684 C 6075 676 6006 743 5814 952 C 5164 1663 4628 2452 4260 3240 C 4204 3360 4181 3419 4187 3429 C 4197 3445 4228 3455 4440 3509 C 4660 3566 4887 3614 5095 3649 C 5362 3694 5542 3715 5895 3743 C 6017 3753 6088 3750 6094 3734 z M 7133 3725 C 7526 3687 7897 3624 8281 3530 C 8515 3472 8691 3419 8697 3404 C 8702 3389 8525 3021 8413 2815 C 8138 2310 7771 1775 7382 1310 C 7212 1108 6986 859 6857 732 C 6753 630 6739 620 6721 630 L 6700 641 L 6700 2180 C 6700 3026 6703 3726 6707 3736 C 6713 3751 6726 3752 6849 3746 C 6924 3742 7052 3732 7133 3725 z M 3650 3113 C 3679 3048 3754 2894 3816 2770 C 4155 2094 4557 1493 5123 817 C 5144 791 5159 767 5156 761 C 5149 750 5073 766 4853 826 C 3966 1068 3119 1545 2439 2186 C 2287 2330 2150 2473 2150 2488 C 2150 2530 2830 2910 3195 3073 C 3361 3147 3565 3229 3581 3230 C 3592 3230 3614 3192 3650 3113 z M 9477 3128 C 9787 2995 10152 2807 10445 2630 C 10599 2537 10650 2502 10650 2488 C 10650 2461 10315 2135 10115 1967 C 9646 1574 9131 1265 8560 1033 C 8284 921 7771 765 7750 786 C 7744 792 7763 821 7796 860 C 8376 1537 8872 2313 9243 3123 C 9264 3169 9285 3200 9294 3200 C 9302 3200 9384 3168 9477 3128 z" stroke-linecap="round" />
</g>
</svg>